<svg viewBox="0 0 3070.92 719.57" xmlns="http://www.w3.org/2000/svg"><g fill="#fff"><path d="m2867.98 310.87h-311.57c-141.07-2.43-140.72-212.35.34-214.3h310.88c55.79-.2 101.77 42.23 106.89 96.45l96.39-12.9c-11.83-101.52-98.24-180.3-202.93-180.12h-311.36c-267.59 4.53-267.71 402.55-.21 407.31h311.57c142.12 4.25 142.27 210.71.05 215.51v.16h-311.68c-55.17-.07-100.59-41.71-106.64-95.27l-95.48 12.79c12.31 100.81 98.14 178.91 202.25 179.01h311.55c268.59-4.65 267.96-404.28-.32-408.69z"/><path d="m1944.43 0c-198.7 0-359.78 161.08-359.78 359.78s161.08 359.78 359.78 359.78 359.78-161.08 359.78-359.78-161.08-359.78-359.78-359.78zm0 623.04c-145.39 0-263.26-117.86-263.26-263.26s117.86-263.26 263.26-263.26 263.26 117.86 263.26 263.26-117.86 263.26-263.26 263.26z"/><path d="m1416.26 359.78c0 145.39-117.86 263.26-263.26 263.26s-263.26-117.86-263.26-263.26v-359.78h-96.53v359.78c0 198.7 161.08 359.78 359.78 359.78s359.78-161.08 359.78-359.78v-359.78h-96.53v359.78z"/><path d="m359.78 0h-359.78v719.57h96.53v-623.04h263.26c145.39 0 263.26 117.86 263.26 263.26v359.78h96.53v-359.78c-.01-198.71-161.09-359.79-359.8-359.79z"/></g></svg>