<svg xmlns="http://www.w3.org/2000/svg" viewBox="0 0 381.8 381.8"><path fill="#fff" d="M190.9 0C85.5 0 0 85.5 0 190.9s85.5 190.9 190.9 190.9 190.9-85.5 190.9-190.9S296.3 0 190.9 0zm-95.5 213.3c0 11.7-9.5 21.3-21.3 21.3h0c-11.7 0-21.3-9.5-21.3-21.3v-44.7c0-11.7 9.5-21.3 21.3-21.3h0c11.7 0 21.3 9.5 21.3 21.3v44.7zm73.5 48.1c0 11.7-9.5 21.3-21.3 21.3h0c-11.7 0-21.3-9.5-21.3-21.3V120.5c0-11.7 9.5-21.3 21.3-21.3h0c11.7 0 21.3 9.5 21.3 21.3v140.8zm73.5 47.3c0 11.7-9.5 21.3-21.3 21.3h0c-11.7 0-21.3-9.5-21.3-21.3V73.2c0-11.7 9.5-21.3 21.3-21.3h0c11.7 0 21.3 9.5 21.3 21.3v235.4zm73.5-82.3c0 11.7-9.5 21.3-21.3 21.3h0c-11.7 0-21.3-9.5-21.3-21.3v-70.8c0-11.7 9.5-21.3 21.3-21.3h0c11.7 0 21.3 9.5 21.3 21.3v70.8z"/></svg>