<svg enable-background="new 0 0 16 16" viewBox="0 0 16 16" xmlns="http://www.w3.org/2000/svg"><path d="m13.108 10.224-3.953-2.224 3.953-2.224c.272-.154.368-.499.215-.771-.153-.271-.494-.37-.771-.216l-3.986 2.243v-4.466c0-.312-.253-.566-.566-.566s-.566.254-.566.566v4.466l-3.986-2.243c-.273-.153-.618-.056-.771.216s-.057.618.216.771l3.952 2.224-3.953 2.224c-.272.153-.369.498-.216.77.104.184.296.289.494.289.094 0 .19-.024.277-.073l3.986-2.242v4.466c.001.312.254.566.567.566s.566-.254.566-.566v-4.466l3.986 2.242c.088.049.183.073.277.073.199 0 .39-.104.494-.289.154-.272.058-.617-.215-.77z" fill="#f08500"/></svg>