<svg enable-background="new 0 0 16 16" viewBox="0 0 16 16" xmlns="http://www.w3.org/2000/svg"><path d="m13.959 10.594-4.612-2.594 4.612-2.594c.318-.179.43-.582.251-.899s-.577-.431-.9-.252l-4.649 2.615v-5.21c0-.364-.296-.66-.661-.66s-.661.296-.661.661v5.21l-4.65-2.617c-.318-.178-.72-.066-.9.252-.178.318-.065.721.252.9l4.612 2.594-4.612 2.594c-.318.178-.431.581-.252.899.121.215.345.337.576.337.11 0 .221-.028.324-.085l4.651-2.616v5.21c-.001.365.295.661.66.661s.661-.296.661-.661v-5.21l4.651 2.616c.102.058.214.085.323.085.232 0 .455-.122.577-.337.177-.318.065-.72-.253-.899z" fill="#f08500"/></svg>